<?xml version="1.0" ?>
<svg data-name="Layer 1"
     id="Layer_1"
     viewBox="0 0 64 64"
     xmlns="http://www.w3.org/2000/svg">
    <path d="M54.5,24.69a1,1,0,0,0-1-.69H37.81L33,9a1,1,0,0,0-1.9,0L26.19,24H10.46a1,1,0,0,0-.59,1.81L22.6,35.06,17.73,50a1,1,0,0,0,.37,1.11,1,1,0,0,0,1.17,0L32,41.89l12.73,9.24a1,1,0,0,0,1.17,0A1,1,0,0,0,46.27,50l-4.87-15,12.73-9.25A1,1,0,0,0,54.5,24.69ZM39.64,33.87A1,1,0,0,0,39.28,35l4.13,12.73L32.59,39.84a1,1,0,0,0-1.18,0L20.59,47.71,24.72,35a1,1,0,0,0-.36-1.11L13.53,26H26.91a1,1,0,0,0,1-.69L32,12.58l4.13,12.73a1,1,0,0,0,1,.69H50.47Z"
        fill="#ffc107"

    />
</svg>