<?xml version="1.0" ?><svg enable-background="new 0 0 24 24" id="Layer_1" version="1.1" viewBox="0 0 24 24" xml:space="preserve" xmlns="http://www.w3.org/2000/svg" xmlns:xlink="http://www.w3.org/1999/xlink"><path d="M24,1.5605469C24,0.7001953,23.2998047,0,22.4394531,0  c-0.4111328,0-0.8129883,0.1665039-1.1035156,0.4570313L9.7224121,12.0700684  c-0.0363159-0.0189209-0.0667725-0.0471802-0.107666-0.0568848c-0.1694336-0.0380859-0.3457031,0.0112305-0.4682617,0.1333008  L5,16.2929688l-0.6464844-0.6464844c-0.1953125-0.1953125-0.5117188-0.1953125-0.7070313,0l-2,2  c-0.1953125,0.1953125-0.1953125,0.5117188,0,0.7070313L2.2929688,19l-2.1464844,2.1464844  c-0.1953125,0.1953125-0.1953125,0.5117188,0,0.7070313l2,2C2.2441406,23.9511719,2.3720703,24,2.5,24  s0.2558594-0.0488281,0.3535156-0.1464844l8-8c0.1337891-0.1337891,0.1806641-0.3320313,0.1206055-0.5117188l-0.0266113-0.079895  l12.595459-12.5978394C23.8334961,2.3735352,24,1.9716797,24,1.5605469z M9,15.5C9,15.776123,8.776123,16,8.5,16S8,15.776123,8,15.5  C8,15.2238159,8.223877,15,8.5,15S9,15.2238159,9,15.5z M3.729126,19.9361572  c0.0436401-0.0229492,0.0876465-0.0458984,0.1243896-0.0826416L4.4570313,19.25l0.7929077,0.7929077L4.5429077,20.749939  L3.729126,19.9361572z M5.25,18.4570313l0.6035156-0.6035156c0.0367432-0.0367432,0.0597534-0.0806885,0.0826416-0.1243896  l0.8137207,0.8137207l-0.7070313,0.7070313L5.25,18.4570313z M22.8359375,1.9570313L10.5939941,14.201355l-0.3972168-1.1915894  L22.0429688,1.1640625C22.1474609,1.0600586,22.2919922,1,22.4394531,1C22.7485352,1,23,1.2514648,23,1.5605469  C23,1.7080078,22.9404297,1.8525391,22.8359375,1.9570313z" fill="#ae72c2"/><g/><g/><g/><g/><g/><g/><g/><g/><g/><g/><g/><g/><g/><g/><g/></svg>